<svg width="79" height="25" viewBox="0 0 79 25" fill="none" xmlns="http://www.w3.org/2000/svg">
<path d="M4.25 13.2743L19.25 13.2743" stroke="#200E32" stroke-width="1.5" stroke-linecap="round" stroke-linejoin="round"/>
<path d="M10.2998 19.2987L4.2498 13.2747L10.2998 7.24969" stroke="#200E32" stroke-width="1.5" stroke-linecap="round" stroke-linejoin="round"/>
<path d="M37.6455 10.8906C38.5479 10.8906 39.2497 10.7653 39.751 10.5146C40.5387 10.1208 40.9326 9.41178 40.9326 8.3877C40.9326 7.35645 40.5137 6.66178 39.6758 6.30371C39.2031 6.10319 38.5013 6.00293 37.5703 6.00293H33.7568V10.8906H37.6455ZM38.3652 18.1738C39.6758 18.1738 40.6104 17.7943 41.1689 17.0352C41.5199 16.5553 41.6953 15.9753 41.6953 15.2949C41.6953 14.1491 41.1833 13.3685 40.1592 12.9531C39.6149 12.7311 38.8952 12.6201 38 12.6201H33.7568V18.1738H38.3652ZM31.6621 4.21973H38.4404C40.2881 4.21973 41.6022 4.77116 42.3828 5.87402C42.8411 6.52572 43.0703 7.27767 43.0703 8.12988C43.0703 9.12533 42.7874 9.94173 42.2217 10.5791C41.9281 10.9157 41.5055 11.2236 40.9541 11.5029C41.7633 11.8109 42.3685 12.1582 42.7695 12.5449C43.4785 13.2324 43.833 14.1813 43.833 15.3916C43.833 16.4085 43.5143 17.3288 42.877 18.1523C41.9245 19.3841 40.4098 20 38.333 20H31.6621V4.21973ZM47.6143 16.9385C47.6143 17.4971 47.8184 17.9375 48.2266 18.2598C48.6348 18.582 49.1182 18.7432 49.6768 18.7432C50.3571 18.7432 51.016 18.5856 51.6533 18.2705C52.7275 17.7477 53.2646 16.8919 53.2646 15.7031V14.1455C53.0283 14.2959 52.724 14.4212 52.3516 14.5215C51.9792 14.6217 51.6139 14.6934 51.2559 14.7363L50.085 14.8867C49.3831 14.9798 48.8568 15.1266 48.5059 15.3271C47.9115 15.6637 47.6143 16.2008 47.6143 16.9385ZM52.2979 13.0283C52.7419 12.971 53.0391 12.7848 53.1895 12.4697C53.2754 12.2979 53.3184 12.0508 53.3184 11.7285C53.3184 11.0697 53.082 10.5934 52.6094 10.2998C52.1439 9.99902 51.4743 9.84863 50.6006 9.84863C49.5908 9.84863 48.8747 10.1208 48.4521 10.665C48.2158 10.9658 48.0618 11.4134 47.9902 12.0078H46.1855C46.2214 10.5898 46.6797 9.60514 47.5605 9.05371C48.4486 8.49512 49.4762 8.21582 50.6436 8.21582C51.9971 8.21582 53.0964 8.47363 53.9414 8.98926C54.7793 9.50488 55.1982 10.307 55.1982 11.3955V18.0234C55.1982 18.224 55.2376 18.3851 55.3164 18.5068C55.4023 18.6286 55.5778 18.6895 55.8428 18.6895C55.9287 18.6895 56.0254 18.6859 56.1328 18.6787C56.2402 18.6644 56.3548 18.6465 56.4766 18.625V20.0537C56.1758 20.1396 55.9466 20.1934 55.7891 20.2148C55.6315 20.2363 55.4167 20.2471 55.1445 20.2471C54.4785 20.2471 53.9951 20.0107 53.6943 19.5381C53.5368 19.2874 53.4258 18.9329 53.3613 18.4746C52.9674 18.9902 52.4017 19.4378 51.6641 19.8174C50.9264 20.1969 50.1136 20.3867 49.2256 20.3867C48.1585 20.3867 47.2848 20.0645 46.6045 19.4199C45.9313 18.7682 45.5947 17.9554 45.5947 16.9814C45.5947 15.9144 45.9277 15.0872 46.5938 14.5C47.2598 13.9128 48.1335 13.5511 49.2148 13.415L52.2979 13.0283ZM62.8145 8.16211C64.1107 8.16211 65.1634 8.47721 65.9727 9.10742C66.7891 9.73763 67.2796 10.8226 67.4443 12.3623H65.5645C65.4499 11.6533 65.1885 11.0661 64.7803 10.6006C64.3721 10.1279 63.7168 9.8916 62.8145 9.8916C61.5827 9.8916 60.7018 10.4932 60.1719 11.6963C59.8281 12.4769 59.6562 13.4401 59.6562 14.5859C59.6562 15.7389 59.8997 16.7093 60.3867 17.4971C60.8737 18.2848 61.64 18.6787 62.6855 18.6787C63.4876 18.6787 64.1214 18.4352 64.5869 17.9482C65.0596 17.4541 65.3854 16.7809 65.5645 15.9287H67.4443C67.2295 17.4541 66.6924 18.5713 65.833 19.2803C64.9736 19.9821 63.8743 20.333 62.5352 20.333C61.0312 20.333 59.8317 19.7852 58.9365 18.6895C58.0413 17.5866 57.5938 16.2116 57.5938 14.5645C57.5938 12.5449 58.0843 10.973 59.0654 9.84863C60.0465 8.72428 61.2962 8.16211 62.8145 8.16211ZM69.335 4.21973H71.1934V13.3828L76.1562 8.49512H78.627L74.2227 12.8027L78.874 20H76.4033L72.8154 14.1992L71.1934 15.6816V20H69.335V4.21973Z" fill="black"/>
</svg>
