<svg width="86" height="33" viewBox="0 0 86 33" fill="none" xmlns="http://www.w3.org/2000/svg">
<g filter="url(#filter0_d_9_186)">
<path fill-rule="evenodd" clip-rule="evenodd" d="M80.906 13.5005C80.906 19.2482 76.2474 23.9068 70.4998 23.9068C64.7521 23.9068 60.0935 19.2482 60.0935 13.5005C60.0935 7.75292 64.7521 3.0943 70.4998 3.0943C76.2474 3.0943 80.906 7.75292 80.906 13.5005Z" stroke="white" stroke-width="1.6875" stroke-linecap="round" stroke-linejoin="round"/>
<path d="M74.3604 16.8107L70.1191 14.2806V8.8277" stroke="white" stroke-width="1.6875" stroke-linecap="round" stroke-linejoin="round"/>
</g>
<g filter="url(#filter1_d_9_186)">
<path d="M11.3857 19V14.502H7.44824V19H5.36328V8.92383H7.44824V12.7656H11.3857V8.92383H13.4775V19H11.3857ZM17.3398 11.5488V19H15.3643V11.5488H17.3398ZM17.3398 8.8623V10.6602H15.3643V8.8623H17.3398ZM24.3672 11.8906C24.9505 12.2643 25.2855 12.9069 25.3721 13.8184H23.4238C23.3965 13.5677 23.3258 13.3695 23.2119 13.2236C22.9977 12.9593 22.6331 12.8271 22.1182 12.8271C21.6943 12.8271 21.3913 12.8932 21.209 13.0254C21.0312 13.1576 20.9424 13.3125 20.9424 13.4902C20.9424 13.7135 21.0381 13.8753 21.2295 13.9756C21.4209 14.0804 22.0977 14.2604 23.2598 14.5156C24.0345 14.6979 24.6156 14.9736 25.0029 15.3428C25.3857 15.7165 25.5771 16.1836 25.5771 16.7441C25.5771 17.4824 25.3014 18.0863 24.75 18.5557C24.2031 19.0205 23.3555 19.2529 22.207 19.2529C21.0358 19.2529 20.1699 19.0068 19.6094 18.5146C19.0534 18.0179 18.7754 17.3867 18.7754 16.6211H20.751C20.792 16.9674 20.8809 17.2135 21.0176 17.3594C21.2591 17.6191 21.7057 17.749 22.3574 17.749C22.7402 17.749 23.0433 17.6921 23.2666 17.5781C23.4945 17.4642 23.6084 17.2933 23.6084 17.0654C23.6084 16.8467 23.5173 16.6803 23.335 16.5664C23.1527 16.4525 22.4759 16.2565 21.3047 15.9785C20.4616 15.7689 19.8669 15.5068 19.5205 15.1924C19.1742 14.8825 19.001 14.4359 19.001 13.8525C19.001 13.1644 19.2699 12.5742 19.8076 12.082C20.3499 11.5853 21.111 11.3369 22.0908 11.3369C23.0205 11.3369 23.7793 11.5215 24.3672 11.8906ZM30.4375 17.6123V19.0684L29.5146 19.1025C28.5941 19.1344 27.9652 18.9749 27.6279 18.624C27.4092 18.4007 27.2998 18.0566 27.2998 17.5918V13.0049H26.2607V11.6172H27.2998V9.53906H29.2275V11.6172H30.4375V13.0049H29.2275V16.9424C29.2275 17.2477 29.2663 17.4391 29.3438 17.5166C29.4212 17.5895 29.6582 17.626 30.0547 17.626C30.1139 17.626 30.1755 17.626 30.2393 17.626C30.3076 17.6214 30.3737 17.6169 30.4375 17.6123ZM37.9023 12.4922C38.5312 13.2806 38.8457 14.2126 38.8457 15.2881C38.8457 16.3818 38.5312 17.3184 37.9023 18.0977C37.2734 18.8724 36.3187 19.2598 35.0381 19.2598C33.7575 19.2598 32.8027 18.8724 32.1738 18.0977C31.5449 17.3184 31.2305 16.3818 31.2305 15.2881C31.2305 14.2126 31.5449 13.2806 32.1738 12.4922C32.8027 11.7038 33.7575 11.3096 35.0381 11.3096C36.3187 11.3096 37.2734 11.7038 37.9023 12.4922ZM35.0312 12.957C34.4616 12.957 34.0218 13.1598 33.7119 13.5654C33.4066 13.9665 33.2539 14.5407 33.2539 15.2881C33.2539 16.0355 33.4066 16.612 33.7119 17.0176C34.0218 17.4232 34.4616 17.626 35.0312 17.626C35.6009 17.626 36.0384 17.4232 36.3438 17.0176C36.6491 16.612 36.8018 16.0355 36.8018 15.2881C36.8018 14.5407 36.6491 13.9665 36.3438 13.5654C36.0384 13.1598 35.6009 12.957 35.0312 12.957ZM43.9932 13.3467C43.2093 13.3467 42.6829 13.6019 42.4141 14.1123C42.2637 14.3994 42.1885 14.8415 42.1885 15.4385V19H40.2266V11.5488H42.0859V12.8477C42.3867 12.3509 42.6488 12.0114 42.8721 11.8291C43.2367 11.5238 43.7106 11.3711 44.2939 11.3711C44.3304 11.3711 44.36 11.3734 44.3828 11.3779C44.4102 11.3779 44.4671 11.3802 44.5537 11.3848V13.3809C44.4307 13.3672 44.3213 13.3581 44.2256 13.3535C44.1299 13.349 44.0524 13.3467 43.9932 13.3467ZM48.7305 17.0449L50.2686 11.5488H52.3398L49.7832 18.877C49.291 20.2897 48.9014 21.1647 48.6143 21.502C48.3271 21.8438 47.7529 22.0146 46.8916 22.0146C46.7184 22.0146 46.5794 22.0124 46.4746 22.0078C46.3698 22.0078 46.2126 22.001 46.0029 21.9873V20.4287L46.249 20.4424C46.4404 20.4515 46.6227 20.4447 46.7959 20.4219C46.9691 20.3991 47.1149 20.3467 47.2334 20.2646C47.3473 20.1872 47.4521 20.0254 47.5479 19.7793C47.6481 19.5332 47.6891 19.3828 47.6709 19.3281L44.9365 11.5488H47.1035L48.7305 17.0449Z" fill="white"/>
</g>
<defs>
<filter id="filter0_d_9_186" x="53" y="0" width="35" height="35" filterUnits="userSpaceOnUse" color-interpolation-filters="sRGB">
<feFlood flood-opacity="0" result="BackgroundImageFix"/>
<feColorMatrix in="SourceAlpha" type="matrix" values="0 0 0 0 0 0 0 0 0 0 0 0 0 0 0 0 0 0 127 0" result="hardAlpha"/>
<feOffset dy="4"/>
<feGaussianBlur stdDeviation="2"/>
<feComposite in2="hardAlpha" operator="out"/>
<feColorMatrix type="matrix" values="0 0 0 0 0 0 0 0 0 0 0 0 0 0 0 0 0 0 0.25 0"/>
<feBlend mode="normal" in2="BackgroundImageFix" result="effect1_dropShadow_9_186"/>
<feBlend mode="normal" in="SourceGraphic" in2="effect1_dropShadow_9_186" result="shape"/>
</filter>
<filter id="filter1_d_9_186" x="1.36328" y="8.8623" width="54.9766" height="21.1523" filterUnits="userSpaceOnUse" color-interpolation-filters="sRGB">
<feFlood flood-opacity="0" result="BackgroundImageFix"/>
<feColorMatrix in="SourceAlpha" type="matrix" values="0 0 0 0 0 0 0 0 0 0 0 0 0 0 0 0 0 0 127 0" result="hardAlpha"/>
<feOffset dy="4"/>
<feGaussianBlur stdDeviation="2"/>
<feComposite in2="hardAlpha" operator="out"/>
<feColorMatrix type="matrix" values="0 0 0 0 0 0 0 0 0 0 0 0 0 0 0 0 0 0 0.25 0"/>
<feBlend mode="normal" in2="BackgroundImageFix" result="effect1_dropShadow_9_186"/>
<feBlend mode="normal" in="SourceGraphic" in2="effect1_dropShadow_9_186" result="shape"/>
</filter>
</defs>
</svg>
