<svg width="102" height="80" viewBox="0 0 102 80" fill="none" xmlns="http://www.w3.org/2000/svg">
<path d="M39.2743 8.91301C44.4176 4.69762 36.8634 -3.24676 31.8809 1.45501C27.3805 5.50827 23.0409 10.6964 18.2191 14.4254C13.8795 10.21 3.27154 -4.38167 0.37846 1.29288C-1.06808 4.21123 1.98572 7.61596 3.59299 9.72366C6.16462 13.2905 8.89697 16.5331 11.6293 19.9379C14.2009 23.1805 17.4155 25.9367 21.4336 23.3426C27.8627 19.4515 33.4881 13.6148 39.2743 8.91301Z" fill="#688CE8"/>
<path d="M92.9568 1.45501C88.4565 5.50827 84.1168 10.6964 79.295 14.4254C74.9554 10.21 64.3475 -4.38167 61.4544 1.29288C60.0078 4.21123 63.0617 7.61596 64.6689 9.72366C67.2405 13.2905 69.9729 16.5331 72.7052 19.9379C75.2769 23.1805 78.4914 25.9367 82.5096 23.3426C88.7779 19.2893 94.5641 13.6148 100.19 8.91301C105.493 4.69762 97.9393 -3.24676 92.9568 1.45501Z" fill="#688CE8"/>
<path d="M64.0267 55.2821C60.0085 50.9046 54.8653 46.5271 48.597 46.5271C42.6501 46.5271 37.6675 50.2561 33.6494 54.4715C28.6669 59.9839 23.3629 66.307 20.1483 72.9543C18.3804 76.5212 22.3985 82.1957 26.256 79.1153C30.4348 75.8727 33.9708 71.6573 37.3461 67.604C39.9177 64.5236 42.9715 58.849 47.1504 57.7141C51.3293 56.5792 54.8653 61.4431 57.2762 64.0372C61.2944 68.2525 65.1518 72.6301 68.5271 77.3318C72.5452 82.8443 81.8674 77.494 77.8492 71.8194C73.831 66.1449 69.0092 60.6324 64.0267 55.2821Z" fill="#688CE8"/>
</svg>
